<?xml version="1.0" encoding="utf-8"?>
<!-- Generator: Adobe Illustrator 25.0.0, SVG Export Plug-In . SVG Version: 6.00 Build 0)  -->
<svg version="1.1" id="Layer_1" xmlns="http://www.w3.org/2000/svg" xmlns:xlink="http://www.w3.org/1999/xlink" x="0px" y="0px"
	 viewBox="0 0 1530.66 478.57" style="enable-background:new 0 0 1530.66 478.57;" xml:space="preserve">
<style type="text/css">
	.st0{fill:#276EF1;}
</style>
<g>
	<g>
		<path class="st0" d="M238.19,0c-36.3,0-77.88,14.31-97.81,22.09c-6.39,2.49-9.2,9.97-6.02,16.04
			c6.55,12.49,13.1,24.98,19.64,37.47c2.76,5.26,9.07,7.58,14.54,5.29c8.54-3.58,18.95-7.2,31.02-9.92c0,0,19.16-4.42,37.87-4.5
			c68.29-0.29,127.42,39.03,155.75,96.31c2.05,3.42,2.14,7.66,0.23,11.09c-2.07,3.71-6.18,5.9-10.49,5.59c-16.98,0-33.96,0-50.94,0
			c-3.61,0-6.98-1.71-9.16-4.58c-7.04-9.24-15.57-17.29-25.22-23.8c-0.12-0.08-0.24-0.17-0.37-0.25c-1.12-0.75-2.26-1.47-3.41-2.18
			c-0.58-0.36-1.16-0.71-1.74-1.05c-0.42-0.25-0.85-0.49-1.28-0.73c-15.51-8.85-33.47-13.92-52.61-13.92
			c-49.46,0-91.03,33.77-102.93,79.5c-2.17,8.46-3.33,17.33-3.33,26.46c0,8.32,0.99,16.4,2.8,24.16
			c8.28,35.55,34.41,64.22,68.45,76.06c9.8,3.74,20.11,6.01,30.62,6.43c36.58,1.47,69.24-15.55,89.44-42.47
			c0.78-1.04,1.31-2.14,1.65-3.27c2.03-6.59-2.92-14-10.5-14h-31.73h-31.81c-6.34,0-11.49-5.14-11.49-11.49v-43.49
			c0-6.34,5.14-11.49,11.49-11.49h31.41h60.05h57.2c6.34,0,11.49,5.14,11.49,11.49v15.1h-0.14c-0.52,13.77-2.66,27.12-6.22,39.88
			c-20.32,72.84-87.13,126.29-166.46,126.29c-25.22,0-49.16-5.42-70.76-15.13c-5.63-2.53-12.25-0.23-15.02,5.29l-18.87,37.61
			c-2.87,5.72-0.53,12.67,5.22,15.47c17.05,8.33,53.93,23.23,99.43,23.23c131.31,0,237.91-105.76,239.27-236.75
			C478.84,109.76,370.26,0,238.19,0z"/>
		<path class="st0" d="M92.94,102.12c5.98,0,10.83-4.85,10.83-10.83c0-5.98-4.85-10.83-10.83-10.83S82.11,85.32,82.11,91.3
			C82.11,97.28,86.96,102.12,92.94,102.12z"/>
		<path class="st0" d="M92.94,378.79c-5.98,0-10.83,4.85-10.83,10.83c0,5.98,4.85,10.83,10.83,10.83s10.83-4.85,10.83-10.83
			C103.77,383.64,98.92,378.79,92.94,378.79z"/>
		<path class="st0" d="M63.04,312.05c-7.67-6.68-19.29-5.88-25.97,1.79c-6.68,7.67-5.88,19.29,1.79,25.97
			c7.67,6.68,19.29,5.88,25.97-1.79C71.51,330.36,70.71,318.73,63.04,312.05z"/>
		<path class="st0" d="M63.04,136.79c-7.67-6.68-19.29-5.88-25.97,1.79s-5.88,19.29,1.79,25.97c7.67,6.68,19.29,5.88,25.97-1.79
			S70.71,143.47,63.04,136.79z"/>
		<path class="st0" d="M54.88,216.35c-12.67-12.51-33.08-12.38-45.58,0.29c-12.51,12.67-12.38,33.08,0.29,45.58
			c12.67,12.51,33.08,12.38,45.58-0.29C67.68,249.27,67.55,228.86,54.88,216.35z"/>
	</g>
	<g>
		<path class="st0" d="M659.74,286.2c-8.18,6.66-19.16,9.99-32.94,9.99c-14.07,0-25.4-3.5-33.99-10.51
			c-9.29-7.47-13.93-18.05-13.93-31.71v-4.29h33.73c0,4.91,1.08,9.02,3.24,12.35c2.45,3.85,5.99,5.78,10.6,5.78
			c8.58,0,12.88-4.23,12.88-12.7c0-3.85-1.49-6.98-4.47-9.37c-1.17-0.93-2.69-1.87-4.56-2.8l-2.54-1.23l-14.45-6.22
			c-4.79-1.99-8.91-4-12.35-6.04c-4.09-2.39-7.53-4.99-10.34-7.8c-6.48-6.6-9.72-14.66-9.72-24.18c0-11.74,4.91-21.34,14.72-28.82
			c8.99-6.83,19.56-10.25,31.71-10.25c6.83,0,13.37,1.23,19.62,3.68c6.77,2.69,12.21,6.48,16.29,11.39
			c5.49,6.78,8.41,15.51,8.76,26.19h-33.55c-1.29-8.64-5.34-12.96-12.18-12.96c-7.77,0-11.65,3.47-11.65,10.42
			c0,2.45,0.41,4.32,1.23,5.61c1.34,2.28,5.4,5.08,12.18,8.41l14.02,6.31c4.91,2.22,8.99,4.35,12.26,6.39
			c3.97,2.45,7.24,5.05,9.81,7.8c5.96,6.31,8.94,14.25,8.94,23.83C673.06,268.76,668.62,279.01,659.74,286.2z"/>
		<path class="st0" d="M802.97,276.47c-13.61,13.14-30.19,19.71-49.76,19.71c-19.04,0-35.36-6.45-48.97-19.36
			c-13.9-13.08-20.85-29.05-20.85-47.92c0-10.04,1.72-19.5,5.17-28.38c1.81-4.73,4.7-9.69,8.67-14.89
			c13.78-18.16,32.5-27.24,56.15-27.24c19.5,0,36.03,6.6,49.58,19.8c13.67,13.26,20.5,29.61,20.5,49.06
			C823.47,246.75,816.64,263.16,802.97,276.47z M779.76,200.09c-6.95-7.94-15.68-11.91-26.19-11.91c-10.63,0-19.39,3.85-26.28,11.56
			c-6.66,7.42-9.99,16.47-9.99,27.16c0,10.92,3.36,20.15,10.07,27.68c6.95,7.88,15.8,11.83,26.54,11.83
			c10.34,0,18.95-3.97,25.84-11.91c6.54-7.53,9.81-16.56,9.81-27.07C789.57,216.73,786.3,207.62,779.76,200.09z"/>
		<path class="st0" d="M874.28,190.62v22.6h38.54v29.78h-38.54v50.63h-32.5v-132.8h72.45v29.78H874.28z"/>
		<path class="st0" d="M985.7,190.62v103.02h-33.9V190.62h-26.19v-29.78h86.11v29.78H985.7z"/>
		<path class="st0" d="M1151,293.64h-29.78l-19.88-85.94h-0.35l-19.97,85.94h-30.66l-34.25-132.8h34.43l17.78,86.37h0.35
			l19.53-86.37h26.02l19.18,86.72h0.35l18.13-86.72h34.34L1151,293.64z"/>
		<path class="st0" d="M1280.48,293.64l-6.48-19.18h-46.08l-7.01,19.18h-36.44l53.26-132.8h26.72l52.82,132.8H1280.48z
			 M1251.39,202.19h-0.53l-13.67,45.38h27.86L1251.39,202.19z"/>
		<path class="st0" d="M1394.36,293.64l-30.66-42.84h-0.35v42.84h-32.5v-132.8h41.96c4.44,0,8,0.09,10.69,0.26
			c3.97,0.18,7.53,0.56,10.69,1.14c7.94,1.34,14.45,4.06,19.53,8.15c10.92,8.76,16.38,20.85,16.38,36.27
			c0,10.57-2.89,19.65-8.67,27.24c-6.02,8.06-14.13,12.91-24.35,14.54l36,45.2H1394.36z M1391.03,194.74
			c-3.8-2.74-8.91-4.12-15.33-4.12h-12.35v36.97h12c14.83,0,22.25-6.34,22.25-19.01C1397.6,202.45,1395.41,197.84,1391.03,194.74z"
			/>
		<path class="st0" d="M1447.97,293.64v-132.8h73.76v29.78h-41.26v20.67h39.95v29.78h-39.95v22.78h41.26v29.78H1447.97z"/>
	</g>
</g>
</svg>
